<?xml version="1.0" encoding="utf-8"?>
<!-- Generator: Adobe Illustrator 22.0.1, SVG Export Plug-In . SVG Version: 6.00 Build 0)  -->
<svg version="1.1" id="Calque_1" xmlns="http://www.w3.org/2000/svg" xmlns:xlink="http://www.w3.org/1999/xlink" x="0px" y="0px"
	 viewBox="0 0 1166.9 454.2" style="enable-background:new 0 0 1166.9 454.2;" xml:space="preserve">
<style type="text/css">
	.st0{fill:url(#Forme_2_1_);}
</style>
<linearGradient id="Forme_2_1_" gradientUnits="userSpaceOnUse" x1="776.8167" y1="72.3976" x2="335.3839" y2="658.1986" gradientTransform="matrix(1 0 0 1 0 -157.89)">
	<stop  offset="0" style="stop-color:#FFBC48"/>
	<stop  offset="1" style="stop-color:#FFA414"/>
</linearGradient>
<path id="Forme_2" class="st0" d="M193.3,157.9L183,227.1l-71.5,104.5l24.1-13.3l392.7-216.2L601.5,62L193.3,157.9z M190.9,139.5
	l307.9-70l-20-2.7l-80.9-11.2L226.5,31.9L2,0.8l82.3,60.5l103.5,76.1L190.9,139.5z M886.9,396.1c-3.4,20-5.5,24.4-47.8,57.3
	L829,439.6c32.5-26.5,36.6-29.5,39.6-47.2l30.5-172.9l19.7-2.7L886.9,396.1z M910.9,150.7l19.7-2.7l-6.8,38.3l-19.4,2.7L910.9,150.7
	z M944.9,340.1c-0.3,3-0.6,6-0.6,8.9c0,13.8,5.4,21,28.4,21c19.1,0,38-6.4,58.4-15.9l4.8,14.6c-20,10.6-43,18-65.4,18
	c-31,0-45.1-12.2-45.1-37.2c0.1-5.5,0.7-10.9,1.8-16.2l9.7-55.5c7.6-42,29.2-62.7,71.6-62.7c26.8,0,43.8,13.6,43.8,38.3
	c0,26.5-17.6,40.7-62.8,53.3c-31.9,8.8-40.4,11.2-40.4,11.2L944.9,340.1z M1033.6,252.7c0-14.9-9.8-21.7-27.1-21.7
	c-29.5,0-45.1,15.3-50.9,47.8l-3.7,21c0,0,6.4-1.6,38.3-10.1C1021.1,281.6,1033.6,270.4,1033.6,252.7L1033.6,252.7z M1071,364.7
	c0.1-2.2,0.3-4.3,0.7-6.4l21.7-123.7h-31.6l2.7-16.2h31.9l7.1-40.4l19.4-2.7l-7.4,43h49.4l-3.7,16.2h-48.8l-21.3,121.7
	c-0.4,2.1-0.6,4-0.7,6.1c0,6.4,3.3,8,11.2,8c9.2,0,20.7-2.7,32.9-7.7l4.8,12.8c-12.5,7.1-26.7,11-41.1,11.2
	C1081.6,386.7,1071,379.6,1071,364.7z M378.6,235.4c21.7-11.9,47.5-20.7,66.7-20.7c17.3,0,25.8,8.8,28.9,21
	c23.4-13.6,48.8-21,67.8-21c22.6,0,30.2,14.9,30.2,32.9c0,5.5-0.6,10.9-1.8,16.2l-21,119.4h-40.7l20.7-117.6c0.3-1.5,0.3-3,0.3-4.5
	c0-4.3-2.1-7-8.5-7c-10.9,0-34,10.1-49.1,19.4l-19.4,109.9H412l20.7-117.6c0.3-1.5,0.4-3,0.3-4.5c0-4.3-2.1-7-8.5-7
	c-10.9,0-34,10.1-49.1,19.4L356,383.6h-40.7l21.9-123.3 M704.1,383.3h-34.2l-0.3-18.3c-14.1,13-31.9,21.7-53.9,21.7
	c-28.4,0-38.4-15.2-38.4-37.7c0.1-5.8,0.7-11.6,1.8-17.3l8.5-48.1c7.7-44.8,18.3-68.8,82.1-68.8c15.9,0,45.4,5.1,62.4,10.6
	L704.1,383.3z M686.8,251.4c-7.7-1.5-15.5-2.4-23.4-2.4c-26.1,0-31.3,10.9-34.8,32.5l-10.3,57.9c-0.3,1.3-0.3,2.7-0.3,4
	c0,6.1,3.7,8.8,11.2,8.8c12.8,0,31.6-12.2,44.1-24.7L686.8,251.4z M758,221.3l41.7-5.7l-29.5,167.8h-40.7L758,221.3z M770.5,150.7
	l41.7-5.7l-8,46l-41.7,6.1L770.5,150.7z M838.4,150.7l41.7-5.7l-42,238.3h-40.7L838.4,150.7z"/>
</svg>
